# xmcd CD database file
#
# Track frame offsets:
#	150
#	11877
#	24899
#	40995
#	58315
#	75831
#	91908
#	105762
#	117259
#	131253
#	152909
#	166689
#	177606
#	199582
#	215771
#	226430
#	242089
#	254508
#	272662
#	285770
#	306057
#	323530
#	343110
#
# Disc length: 4786 seconds
#
# Revision: 1
# Processed by: cddbd v1.5.2PL0 Copyright (c) Steve Scherf et al.
# Submitted via: Feurio! 1.68 - http://www.feurio.com
#
DISCID=2e12b017
DTITLE=Willie Nelson - Legend - Best Of 
DYEAR=1900
DGENRE=country
TTITLE0=On The Road Again
TTITLE1=Crazy
TTITLE2=Always On My Mind
TTITLE3=Me And Paul
TTITLE4=Stardust
TTITLE5=Whiskey River (Live)
TTITLE6=Highwayman (With Waylon Jennings, Johnny Cash and Kris Kristofferson)
TTITLE7=Night Life
TTITLE8=My Heroes Have Always Been Cowboys
TTITLE9=Pancho And Lefty (With Merle Haggard)
TTITLE10=Funny How Time Slips Away
TTITLE11=Hello Walls
TTITLE12=City Of New Orleans
TTITLE13=Blue Skies
TTITLE14=Blue Eyes Crying In The Rain
TTITLE15=Mammas Don't Let Your Babies Grow Up To Be Cowboys (With Waylon 
TTITLE15=Jennings)
TTITLE16=A Song For You (live)
TTITLE17=Help Me Make It Through The Night
TTITLE18=Lost Highways (With Ray Price)
TTITLE19=Angel Flying Close To The Ground
TTITLE20=Without A Song
TTITLE21=Georgia On My Mind
TTITLE22=To All The Girls I've Love Before (With Julio Iglesias)
EXTD=
EXTT0=
EXTT1=
EXTT2=
EXTT3=
EXTT4=
EXTT5=
EXTT6=
EXTT7=
EXTT8=
EXTT9=
EXTT10=
EXTT11=
EXTT12=
EXTT13=
EXTT14=
EXTT15=
EXTT16=
EXTT17=
EXTT18=
EXTT19=
EXTT20=
EXTT21=
EXTT22=
PLAYORDER=
